<?xml version="1.0" encoding="UTF-8"?>
<svg id="Layer_2" data-name="Layer 2" xmlns="http://www.w3.org/2000/svg" viewBox="0 0 1133.19 1129.36">
  <defs>
    <style>
      .cls-1, .cls-2 {
        fill: #1c1d29;
      }

      .cls-3, .cls-4 {
        fill: #263042;
      }

      .cls-5 {
        fill: #facf89;
      }

      .cls-5, .cls-6, .cls-7, .cls-4, .cls-8, .cls-2, .cls-9, .cls-10, .cls-11 {
        fill-rule: evenodd;
      }

      .cls-6 {
        fill: #f5986a;
      }

      .cls-7 {
        fill: #384357;
      }

      .cls-8 {
        fill: #5e079b;
      }

      .cls-9 {
        fill: #9405e8;
      }

      .cls-10 {
        fill: #fff;
      }

      .cls-11 {
        fill: #697791;
      }
    </style>
  </defs>
  <g id="ninja">
    <g>
      <path class="cls-2" d="m52.36,166.86c1.87,83.28,66.24,122.13,158.2,141.35-7.96,14.96-31.65,37.33-56.01,31.51C99.33,326.54,8.53,266.12,0,205.24c18.7-5.93,30.75-17.46,52.36-38.38h0Z"/>
      <path class="cls-2" d="m95.46,64.94c10.13,78.44,104.13,114.64,105.3,235.39.28,29.45-26.72,44.57-49.76,44.65C190.62,202.7,55.26,199.24,23.15,96.41c25.38-1,51.83-11.74,72.32-31.47h0Z"/>
      <path class="cls-2" d="m149.08,870.78c47.94,31.83,98.37,2.03,149.91-54.98,4.94,11.55,7.12,37.11-6.94,51.93-31.87,33.58-106.2,73.38-144.41,55.15,4.91-15.51,3.72-28.57,1.44-52.1h0Z"/>
      <path class="cls-2" d="m145.82,743.69c36.04,42.85,107.04,15.71,153.74,89.25,11.39,17.94.71,41.4-13.28,53.55-30.07-108.18-113.78-39.22-172.49-85.5,15.07-13.94,27.07-34.42,32.03-57.3h0Z"/>
      <path class="cls-1" d="m1024.35,399.44c-39.99,2.41-82.61,9.86-122.76,21.6-37.82,11.06-73.42,25.95-102.45,44.03-38.83,27.48-54.32,91.56-52.76,136.27.4,11.69,2.03,21.76,4.73,29.09,1.42,3.84,2.33,6.09,2.51,6.15.28.08.9-1.51,3.97-4.63,36.99-37.5,77.78-68.11,121.34-93.57,43.32-25.32,89.5-45.62,137.46-62.6,32.67-11.56,54.62-21.94,68.15-31.91,10.19-7.51,14.55-13.96,14.73-20.06l-.05-1.78c-.26-4.3-2.36-8.91-7.8-12.72-7.98-5.58-21.78-9.63-44.21-10.32-6.71-.2-14.31-.07-22.85.44h0Zm-132.2-10.97c42.64-12.47,87.85-20.37,130.2-22.93,9.21-.56,17.79-.68,25.78-.44,29.85.91,49.77,7.39,62.69,16.43,15.45,10.81,21.47,24.9,22.29,38.5.09,1.42.1,3,.05,4.7-.51,16.89-8.97,32.08-28.55,46.51-16.23,11.96-41.03,23.86-76.92,36.57-45.92,16.25-90.13,35.69-131.61,59.94-41.24,24.11-79.69,52.91-114.29,87.99-12.94,13.12-25.71,16.84-37.6,13.4-11.45-3.31-19.8-12.99-24.97-27.01-3.88-10.52-6.19-24.27-6.72-39.73-1.84-53.05,17.87-129.99,66.93-164.92.53-.43,1.09-.82,1.68-1.19,31.59-19.7,70.17-35.86,111.06-47.82h0Z"/>
      <path class="cls-7" d="m1023.35,382.49c-80.33,4.85-171.09,29.43-233.29,68.22-81.37,56.49-73.54,247.04-20.38,193.13,71.59-72.59,158.47-118.82,252.35-152.05,68.56-24.27,93.48-44.53,94.18-67.52.64-21.19-16.95-46.37-92.86-41.78h0Z"/>
      <path class="cls-4" d="m980.48,386.81c-65.31,8.72-148.86,33.68-190.42,63.89-81.37,56.5-73.53,247.04-20.38,193.14,60.28-61.11,131.38-103.54,208.39-135.26-59.43-8.41-47.54-100.88,2.41-121.77h0Z"/>
      <path class="cls-1" d="m313.08,587.75c-21.08,32.9-36.56,73.64-38.55,120.67-1.69,39.73,6.18,84.09,28.26,132.24,2.31,5.07,1.92,10.69-.57,15.22-13.73,25.23-44.32,97.15-61.01,158.61-9.88,36.39-15.05,67.52-8.42,78.1,4.62,7.37,21.48-.49,38.55-11.19,18.17-11.39,36.52-27.11,46.97-36.05l5.7-4.88,1.03-.79c9.48-7.86,17.77-14.6,24.89-20.2,7.89-6.22,15.98-12.39,24.32-18.55,7.3-5.41,17.53-4.09,23.22,2.87,15.43,17.35,29.23,27.67,40.98,32.86,11.19,4.94,19.46,4.82,24.55,1.82,5.82-3.43,8.68-10.58,9.58-21.13,1.23-14.46-1.23-34.02-5.53-58.07-1.54-8.62,3.71-16.89,11.93-19.3,26.67-10.5,52.4-16.36,79.73-19.11,27.37-2.75,56.1-2.36,88.95-.42,8.87.52,15.75,7.78,15.97,16.51,2.6,48.75,10.23,87.34,21.13,113.89,9.4,22.89,20.06,35.38,30.54,35.67h.09c1.95.04,3.92-.17,5.86-.6,20.33-4.59,39.34-32.25,54.04-68.29,15.94-39.1,25.84-86.89,26.96-127.55.48-17.37-.66-33.29-3.62-46.43-2.33-10.35-9.25-17.68-18.51-22.55-13.17-6.92-30.86-9.3-48.26-8.45-9.36.44-17.3-6.79-17.74-16.15-.07-1.52.06-2.99.37-4.41,7.29-39.22,17.87-74.52,31.08-107.59,12.54-31.38,27.39-60.63,43.99-89.24-1.97-9.11-10.1-17.85-22.74-25.95-22.51-14.43-57.37-25.5-98.15-32.87-41.86-7.57-89.58-11.14-136.61-10.41-98.66,1.53-193.01,21.22-218.97,61.72h0Zm-72.44,119.34c2.28-53.81,19.89-100.27,43.86-137.69,32.69-51,138.48-75.58,247.15-77.27,49.08-.76,99.02,2.99,142.98,10.94,45.05,8.14,84.21,20.79,110.52,37.66,23.91,15.32,38.16,34.5,38.74,57.58.14,3.16-.59,6.39-2.31,9.32-16.96,28.82-32.02,58.08-44.52,89.36-10.22,25.6-18.78,52.67-25.33,82.12,15.79,1.33,31.18,5.11,44.2,11.95,17.67,9.29,31,23.89,35.79,45.15,3.58,15.88,4.97,34.65,4.41,54.8-1.22,44.61-11.99,96.83-29.35,139.38-18.6,45.61-45.54,81.27-78.1,88.63-4.62,1.04-9.34,1.52-14.16,1.4h-.16c-24.87-.68-46.14-20.52-60.98-56.67-11.12-27.08-19.16-64.36-22.68-110.18-25.12-1.12-47.56-1.05-68.67,1.07-20.32,2.04-39.59,6-59.13,12.65,3.24,20.56,4.81,38.15,3.56,52.86-1.86,21.85-9.65,37.75-26.33,47.58-13.83,8.15-33,9.94-55.39.04-12.88-5.69-27.14-15.47-42.31-30.53-3.68,2.82-7.52,5.81-11.52,8.96-8.71,6.87-16.78,13.38-24.26,19.58l-1,.89c-2.73,2.27-3.84,3.22-5.3,4.47-10.99,9.41-30.3,25.95-51.08,38.98-32.02,20.06-66.33,30.54-85.2.42-12.54-20.02-7.77-60.49,4.3-104.95,15.89-58.52,44.37-126.97,60.17-158.45-21.9-50.53-29.72-97.53-27.92-140.05h0Z"/>
      <path class="cls-7" d="m298.79,578.58c-41.38,64.58-62.54,157.63-11.42,269.13-23.24,42.66-93.37,214.85-68.93,253.86,22.98,36.67,98.94-33.5,116.4-47.99,17.67-14.67,34.07-27.6,49.52-39.02,38.47,43.5,69.94,48.73,87.22,38.55,22.5-13.26,21.3-46.08,12.23-96.81,51.21-20.45,98.71-22.69,162.87-18.89,5.48,103.96,33.52,165.11,68.17,166.06,69.99,1.92,119.44-178.95,100.34-263.54-7.82-34.62-47.08-46.02-84.12-44.23,14.17-76.64,41.21-137.68,75.9-196.64-1.65-106.08-440.91-125.41-508.17-20.48h0Z"/>
      <path class="cls-4" d="m653.49,1000.1c11.44,65.43,34.4,102.62,61.36,103.36,34.99.96,64.84-43.75,83.56-99.28-44.27,50.08-105.52,58-144.92-4.08h0Z"/>
      <path class="cls-11" d="m281.29,859.65c-25.45,52.42-77.62,185.89-66.37,233.02,10.65-71.9,49.64-160.71,79.21-204.69-4.5-9.38-8.8-18.82-12.84-28.32h0Z"/>
      <path class="cls-11" d="m816.63,923.72c3.86-31.28,3.69-61.03-1.45-83.79-7.81-34.62-47.19-45.76-84.24-43.96l4.33-20.22-125.81,34.8c146.81-5.71,192.68-23.87,207.17,113.17h0Z"/>
      <path class="cls-4" d="m231.39,1111.25c30.77,7.87,88.51-45.28,103.46-57.68,14.75-12.24,28.61-23.28,41.77-33.22l-18.75-27.27c-47.04,41.41-73,99.75-126.48,118.17h0Zm257.81-157.05c48.81-18.38,96.26-20.37,157.48-16.81-17.67-36.08-130.37-17.89-163.88-4.86l6.4,21.66h0Z"/>
      <path class="cls-11" d="m298.8,578.58c-41.39,64.58-62.54,157.63-11.42,269.13l38.46,100.24,33.89,35.36h.05c-99.31-210.26-100.49-300.42-39.84-421.98l-5.81.26c-6.24,5.25-11.43,10.9-15.33,16.98h0Z"/>
      <path class="cls-4" d="m384.36,1014.56c38.47,43.5,69.93,48.73,87.22,38.55,22.5-13.26,21.3-46.08,12.23-96.81-14.2-44.72-29.71-106.34-34.04-120.09,1.13-56.24,2.26-112.48,3.39-168.72l-55.27-41.21c-60.23,84.25,28.32,267.32,58.86,335.18,11.9,26.44,12.15,51.6-2.29,61.39-14.58,9.89-57.63.93-94.68-39.53,7.96,11.48,11.16,17.4,24.59,31.23h0Z"/>
      <path class="cls-4" d="m741.29,750.67c15.28-56.4,38.05-104.67,65.68-151.61-1.25-80.67-255.54-111.15-406.89-74.99,8.55,18.73,14.39,42.56,15.78,73.65l24.44,186.66c57.17-65.16,209.84-77.34,301-33.7h0Z"/>
      <path class="cls-1" d="m368.59,550.48c-6.25,2.3-12.18,4.78-17.73,7.42-3.97,1.89-7.72,3.85-11.23,5.89,17.44,32.77,37.91,63.56,60.95,92.69,23.7,29.96,50.26,58.28,79.13,85.25,5.72-3.18,11.72-6.61,18-10.27l8.59-5.07c-27.91-25.63-53.09-52.43-75.49-80.63-23.84-30.02-44.6-61.69-62.22-95.29h0Zm-31.83-22.19c10.56-5.03,22.35-9.53,35.12-13.5,7.56-2.35,15.93,1.07,19.55,8.4,17.87,36.22,39.58,70.16,65.02,102.2,25.56,32.18,54.85,62.4,87.79,91.05,1.16,1.03,2.2,2.22,3.08,3.59,4.85,7.61,2.61,17.71-5,22.56-10.06,6.42-19.41,12.16-28.07,17.21-8.39,4.9-17.84,10.17-28.33,15.8-6.07,3.81-14.17,3.3-19.73-1.76-33.22-30.27-63.86-62.47-91.26-97.09-27.12-34.28-50.89-70.82-70.62-110.08-4.26-7.09-2.57-16.41,4.18-21.51,8.24-6.22,17.73-11.85,28.26-16.86h0Z"/>
      <path class="cls-8" d="m376.75,530.43c-23.52,7.31-43.52,16.56-58.38,27.79,38.64,77.3,93.44,143.9,158.85,203.49,19.57-10.49,38.35-21.44,56.32-32.91-67.52-58.72-119.97-123.76-156.79-198.37h0Z"/>
      <path class="cls-1" d="m766.04,568.1c-3.05-1.91-6.34-3.77-9.83-5.56-5.77-2.96-12.23-5.79-19.29-8.49-31.22,47.9-68.67,90.14-112.33,127.71-44.4,38.2-95.22,71.55-152.45,101.11.34,6.55.86,13.73,1.56,21.11.3,3.08.62,6.19.97,9.31,59.44-29.93,114.31-63.77,162.97-103.31,49.9-40.55,93.29-87.18,128.39-141.88h0Zm5.04-34.66c10.32,5.29,19.33,11.1,26.76,17.4,6.62,4.99,8.52,14.28,4.15,21.53-38.42,63.53-87.1,116.98-143.71,162.98-55.93,45.45-119.61,83.56-188.78,116.9-1.61.9-3.41,1.54-5.35,1.86-8.92,1.45-17.33-4.61-18.78-13.52-1.72-10.5-3.15-22.16-4.22-33.54v-.06c-1.11-11.8-1.82-23.24-2.07-32.7-.49-6.42,2.85-12.8,8.95-15.88,58.75-29.56,110.52-63.02,155.28-101.53,44.22-38.05,81.65-81.06,112.26-130.18,3.63-7.04,11.94-10.6,19.7-8.04,12.95,4.29,24.99,9.22,35.81,14.77h0Z"/>
      <path class="cls-9" d="m787.96,563.92c-13.49-11.68-33.47-21.61-57.81-29.67-63.34,102.12-154.92,178.49-274.74,238.78.41,17.79,2.61,43.54,6.12,64.94,136.76-65.8,251.59-150.32,326.43-274.05h0Z"/>
      <path class="cls-8" d="m786.85,562.97c-.71-.59-1.43-1.18-2.17-1.76l-.68-.53-.69-.53-.02-.02c-.92-.7-1.87-1.39-2.84-2.08l-.74-.52-.23-.16c-1.17-.8-2.37-1.6-3.6-2.39l-.79-.5c-9.81-6.17-21.59-11.75-34.93-16.72l-1.08-.4c-1.82-.67-3.66-1.32-5.53-1.96l-1.12-.39-2.27-.76c-51.91,83.68-122.77,150.07-212.6,204.5,38.32-11.91,83.19-16.17,126.22-12.62,56.83-45.86,105.87-99.02,144.18-162.21l-1.11-.95h0Z"/>
      <path class="cls-1" d="m270.08,843.56c-1.46-3.69.34-7.87,4.03-9.33,3.69-1.46,7.87.34,9.33,4.03,19.85,49.76,40.22,89.7,60.06,121.18,26.12,41.42,51.17,67.94,72.81,82.77,20.21,13.85,36.77,17.19,47.73,12.82,1.17-.47,2.31-1.05,3.39-1.73,36.34-22.91,14.75-90.43-8.81-164.1-5.38-16.85-10.88-34.02-15.78-50.98-3.63-12.56-6.3-31.58-7.53-49.58-1.24-18.27-.99-35.9,1.25-45.24.92-3.86,4.8-6.24,8.66-5.33,3.86.92,6.24,4.8,5.33,8.66-1.88,7.85-2.01,23.88-.85,40.95,1.17,17.19,3.65,35.08,6.96,46.54,4.91,16.99,10.34,33.97,15.67,50.64,25.32,79.2,48.53,151.77,2.77,180.63-1.78,1.12-3.7,2.1-5.76,2.92-15.22,6.07-36.61,2.53-61.15-14.29-23.1-15.83-49.61-43.76-76.88-87-20.25-32.12-41.03-72.85-61.25-123.54h0Z"/>
      <path class="cls-2" d="m731.06,795.7c-82.82,5.33-199.85,22.88-272.5,62.99l-7.9-43.12c79.41-41.05,188.03-57.41,294.15-65.17l-13.75,45.29h0Z"/>
      <path class="cls-1" d="m883.97,99.73c28.03,33.85,47.69,149.91,45.1,262.71-2.09,90.82-18.31,181.04-55.72,227.33-.56.69-1.16,1.33-1.8,1.92-57.23,56.68-194,86.78-330.36,88.97-136.84,2.2-274.98-23.65-333.65-78.84-.65-.61-1.24-1.26-1.78-1.95-38.54-45.35-57.52-134.53-62.5-224.73-6.22-112.65,9.71-229.29,36.64-264.05.38-.49.78-.95,1.2-1.39l1.01-1.04C250.29,38.93,390.34,2.36,530.25.11c140.13-2.25,281.49,29.89,351.76,97.6l.64.62c.47.45.9.92,1.32,1.4h0Zm11.21,262.05c2.41-105.15-13.67-210.74-36.97-239.88-63.69-61.08-195.47-90.01-327.43-87.89-132.04,2.12-262.9,35.32-324.53,98.5-22.26,30.06-34.88,135.93-29.1,240.78,4.62,83.71,21.18,165.27,54.21,204.34,52.38,48.57,180.61,71.21,309.29,69.14,128.61-2.07,255.97-28.8,306.8-78.96,31.85-40.16,45.8-122.23,47.72-206.03h0Z"/>
      <path class="cls-7" d="m870.89,110.55c46.42,56.09,67.53,371.69-10.77,468.59-107.28,107.64-530.27,114.45-640.97,10.31-81.38-94.32-70.43-410.45-25.84-468C322.46-12.59,737.5-19.26,870.89,110.55h0Z"/>
      <path class="cls-11" d="m540.92,663.71c-132.99,2.14-266.41-22.19-321.76-74.26-81.38-94.32-70.44-410.45-25.84-468C259.32,52.95,399.99,17.73,539.58,16.98c-99.45,12.49-196.57,42.39-274.64,86.66-38.16,21.64-48.45,26.72-60.19,70.85-31.52,118.47-20.71,246.53,11.21,347.71,14.13,44.8,18.19,57.38,59.4,77.46,75.05,36.58,164.64,53.26,265.56,64.05h0Z"/>
      <path class="cls-4" d="m870.89,110.55c46.42,56.09,67.53,371.7-10.77,468.59-21.03,21.1-54.22,38.3-94.77,51.58,121.24-155.71,129.21-461.51-82.27-601.7,78.35,14.31,146.56,41.38,187.82,81.53h0Z"/>
      <path class="cls-1" d="m927.42,298.86c-15.35,96.94-83.88,166.28-174.78,207.66-63.86,29.07-138.86,44.3-213.98,45.5-75.15,1.21-150.6-11.59-215.3-38.56-92.22-38.45-162.96-105.56-181.42-201.97-1.44-7.53,3.5-14.81,11.03-16.25,2.43-.46,4.83-.26,7.01.47,139.06,35.69,257.46,52.75,375.38,50.86,118.16-1.9,236.23-22.86,374.5-63.2,7.35-2.13,15.05,2.1,17.18,9.46.59,2.03.69,4.08.38,6.04h0Zm-186.31,182.43c75.72-34.47,134.29-89.6,154.29-164.94-131.19,36.87-245.18,56.09-359.61,57.93-114.39,1.84-228.93-13.7-361.26-46.34,22.4,74.64,82.71,127.86,159.47,159.86,61.24,25.53,132.81,37.64,204.21,36.49,71.43-1.15,142.56-15.55,202.89-43.01h0Z"/>
      <path class="cls-4" d="m913.72,296.69c-49.85,314.72-698.2,325.15-758.15,12.2,281.38,72.34,479.24,69.16,758.15-12.2h0Z"/>
      <path class="cls-5" d="m808.05,458.94c-143.47,102.14-394.96,106.18-541.64,8.72-26.48-30.38-45.59-86.46-27.41-139.05,253.65,42.62,326.05,52.94,584.18.55,13.63,40.34-5.32,109.83-15.13,129.78h0Z"/>
      <path class="cls-6" d="m233.1,391.02c-2.66-20.14-1.31-41.55,5.9-62.41,253.65,42.62,326.05,52.94,584.18.55,6.16,18.23,5.66,42.41,2.37,65.28-210.82,49.94-408.47,49.44-592.44-3.42h0Z"/>
      <path class="cls-1" d="m914.16,239.79c3.08,13.78,5.77,28.64,8.01,44.21,2.28,15.91,4.16,32.68,5.55,49.93.54,6.83-3.97,12.9-10.39,14.55-138.12,41.09-271.01,61.55-398.54,60.87-127.89-.68-250.24-22.65-366.9-66.38-5.88-2.19-9.4-7.95-9-13.92.61-9.28,1.41-18.54,2.37-27.68.96-9.21,2.04-17.96,3.21-26.14,1.08-7.59,8.12-12.88,15.71-11.8h.05c116.07,17.25,233.84,27.82,355.16,24.49,121.27-3.33,246.38-20.51,377.31-58.75,7.35-2.13,15.05,2.1,17.18,9.46l.28,1.16h0Zm-19.5,48.13c-1.41-9.84-2.97-19.19-4.65-27.98-128.13,36.05-250.81,52.43-369.86,55.7-118.56,3.25-233.26-6.46-346.01-22.67-.45,3.72-.88,7.47-1.27,11.22-.55,5.29-1.05,10.76-1.52,16.4,110.66,40.19,226.55,60.39,347.54,61.04,121.45.65,248.2-18.42,380.12-56.73-1.21-12.85-2.67-25.24-4.36-36.98h0Z"/>
      <path class="cls-2" d="m900.56,242.49c5.95,26.54,10.53,58.33,13.3,92.53-274.14,81.65-526.86,81.29-757.13-5.04,1.28-18.64,3.14-36.4,5.5-52.79,233.31,34.67,474.05,42.48,738.34-34.7h0Z"/>
      <path class="cls-2" d="m396.13,377.96c30.15-.49,55.08,29.72,55.69,67.48.61,37.75-23.34,68.75-53.49,69.23-30.15.49-55.08-29.72-55.69-67.48-.61-37.75,23.34-68.75,53.49-69.23h0Z"/>
      <path class="cls-10" d="m411.54,410.9c11.51-.18,21.04,11.35,21.27,25.77.23,14.42-8.92,26.26-20.43,26.44-11.52.18-21.04-11.35-21.27-25.77-.23-14.42,8.92-26.26,20.43-26.44h0Z"/>
      <path class="cls-2" d="m664.03,377.96c-30.15-.49-55.08,29.72-55.69,67.48-.61,37.75,23.34,68.75,53.49,69.23,30.15.49,55.08-29.72,55.69-67.48.61-37.75-23.34-68.75-53.49-69.23h0Z"/>
      <path class="cls-10" d="m648.63,410.9c-11.52-.18-21.04,11.35-21.27,25.77-.23,14.42,8.92,26.26,20.43,26.44,11.51.18,21.04-11.35,21.27-25.77.23-14.42-8.91-26.26-20.43-26.44h0Z"/>
      <path class="cls-3" d="m932.98,1030.58c-.43,6.45,3.94,12.08,9.77,12.58,5.82.49,10.89-4.34,11.32-10.79,2.46-36.06,4.41-72.59,5.64-109.75,1.23-37.16.06-119.78-.38-157.63-.07-6.47-4.87-11.67-10.71-11.6-5.84.06-10.52,5.36-10.45,11.84.43,37.81,1.63,120.04.41,156.53-1.21,36.48-3.16,72.74-5.61,108.84h0Z"/>
      <path class="cls-3" d="m885.94,991.04c-.25,6.46,4.28,11.93,10.11,12.22,5.83.29,10.76-4.71,11.01-11.17.82-21.12,1.41-42.35,1.74-63.7.33-21.68.39-43.27.14-64.76-.07-6.47-4.87-11.67-10.71-11.6-5.84.06-10.52,5.37-10.45,11.84.25,21.79.2,43.12-.12,64.03-.32,21.23-.91,42.28-1.72,63.15h0Z"/>
      <path class="cls-3" d="m979.25,977.23c-.25,6.46,4.28,11.93,10.11,12.22,5.83.29,10.76-4.71,11.01-11.17.82-21.12,1.41-42.35,1.74-63.7.33-21.68.39-43.27.14-64.76-.07-6.47-4.87-11.67-10.71-11.6-5.84.06-10.52,5.36-10.45,11.84.25,21.79.2,43.12-.12,64.03-.32,21.23-.91,42.28-1.72,63.15h0Z"/>
      <path class="cls-3" d="m107.36,564.64c-.35-6.46,3.93-11.93,9.57-12.23,5.64-.3,10.49,4.7,10.85,11.15,1.13,20.87,2.49,41.87,4.13,63.05,1.61,20.85,3.51,42.09,5.75,63.76.66,6.44-3.35,12.18-8.97,12.83-5.61.65-10.71-4.04-11.37-10.48-2.2-21.37-4.12-42.88-5.79-64.49-1.64-21.3-3.02-42.49-4.16-63.6h0Zm-48.96-126.66c-.18-6.47,4.26-11.79,9.91-11.88,5.65-.09,10.37,5.07,10.55,11.54.94,36.18,2.39,72.48,4.56,108.92,2.18,36.45,5.1,73.41,8.98,111.01.66,6.44-3.35,12.18-8.97,12.83-5.62.65-10.71-4.04-11.37-10.48-3.88-37.64-6.83-74.99-9.04-112.11-2.22-37.13-3.68-73.69-4.62-109.84h0Z"/>
      <path class="cls-11" d="m771.09,815.84c14.97,5.48,27.11,17.38,27.11,26.56s-12.14,12.19-27.11,6.7c-14.98-5.48-27.12-17.38-27.12-26.56s12.14-12.19,27.12-6.7h0Z"/>
      <path class="cls-11" d="m744.65,854.45c9.34,3.42,16.92,10.84,16.92,16.57s-7.58,7.61-16.92,4.18c-9.34-3.42-16.92-10.84-16.92-16.57s7.58-7.61,16.92-4.18h0Z"/>
      <path class="cls-11" d="m329.25,68.12c25.24-13.62,55.72-15.78,68.09-4.83,12.36,10.95,1.93,30.87-23.31,44.49-25.24,13.62-55.72,15.78-68.09,4.83-12.36-10.95-1.93-30.87,23.31-44.49h0Z"/>
      <path class="cls-11" d="m402.04,117.92c14.89-8.03,32.87-9.31,40.16-2.85,7.29,6.46,1.14,18.21-13.75,26.25-14.89,8.03-32.87,9.31-40.16,2.85-7.29-6.46-1.14-18.21,13.75-26.25h0Z"/>
    </g>
  </g>
</svg>